<svg width="19" height="19" viewBox="0 0 19 19" fill="none" xmlns="http://www.w3.org/2000/svg">
<path d="M16.8759 5.6535L16.4852 4.97536C16.1896 4.46249 16.0419 4.20606 15.7905 4.1038C15.5391 4.00155 15.2547 4.08224 14.686 4.24361L13.72 4.51571C13.357 4.59944 12.976 4.55194 12.6446 4.38161L12.3778 4.22773C12.0936 4.04565 11.8749 3.7772 11.7538 3.46165L11.4895 2.67205C11.3157 2.14954 11.2287 1.88828 11.0218 1.73884C10.8149 1.58941 10.5401 1.58941 9.99032 1.58941H9.10777C8.55811 1.58941 8.28325 1.58941 8.0763 1.73884C7.8694 1.88828 7.78248 2.14954 7.60866 2.67205L7.34427 3.46165C7.22324 3.7772 7.00458 4.04565 6.72031 4.22773L6.45361 4.38161C6.1221 4.55194 5.74119 4.59944 5.37812 4.51571L4.4121 4.24361C3.84341 4.08224 3.55908 4.00155 3.30766 4.1038C3.05624 4.20606 2.90848 4.46249 2.61295 4.97536L2.2222 5.6535C1.94519 6.13425 1.80668 6.37462 1.83356 6.6305C1.86044 6.88639 2.04586 7.09259 2.41671 7.50501L3.23295 8.41755C3.43245 8.67009 3.57409 9.11026 3.57409 9.50601C3.57409 9.90193 3.4325 10.3419 3.23297 10.5946L2.41671 11.5071C2.04586 11.9196 1.86045 12.1257 1.83356 12.3817C1.80668 12.6375 1.94519 12.8779 2.2222 13.3586L2.61295 14.0367C2.90847 14.5496 3.05624 14.8061 3.30766 14.9083C3.55908 15.0106 3.84342 14.9299 4.41212 14.7685L5.37809 14.4964C5.74122 14.4126 6.1222 14.4602 6.45375 14.6306L6.72041 14.7845C7.00463 14.9666 7.22323 15.2349 7.34425 15.5505L7.60866 16.3402C7.78248 16.8627 7.8694 17.1239 8.0763 17.2734C8.28325 17.4228 8.55811 17.4228 9.10777 17.4228H9.99032C10.5401 17.4228 10.8149 17.4228 11.0218 17.2734C11.2287 17.1239 11.3157 16.8627 11.4895 16.3402L11.7539 15.5505C11.8749 15.2349 12.0935 14.9666 12.3778 14.7845L12.6444 14.6306C12.9759 14.4602 13.3569 14.4126 13.72 14.4964L14.686 14.7685C15.2547 14.9299 15.5391 15.0106 15.7905 14.9083C16.0419 14.8061 16.1896 14.5496 16.4852 14.0367L16.8759 13.3586C17.153 12.8779 17.2914 12.6375 17.2646 12.3817C17.2377 12.1257 17.0523 11.9196 16.6814 11.5071L15.8651 10.5946C15.6656 10.3419 15.524 9.90193 15.524 9.50601C15.524 9.11026 15.6657 8.67009 15.8651 8.41755L16.6814 7.50501C17.0523 7.09259 17.2377 6.88639 17.2646 6.6305C17.2914 6.37462 17.153 6.13425 16.8759 5.6535Z" stroke="#959595" stroke-width="1.14588" stroke-linecap="round"/>
<path d="M12.2859 9.49988C12.2859 11.0302 11.0453 12.2707 9.51504 12.2707C7.98474 12.2707 6.74422 11.0302 6.74422 9.49988C6.74422 7.96959 7.98474 6.72904 9.51504 6.72904C11.0453 6.72904 12.2859 7.96959 12.2859 9.49988Z" stroke="#959595" stroke-width="1.14588"/>
</svg>
