<svg width="25" height="25" viewBox="0 0 25 25" fill="none" xmlns="http://www.w3.org/2000/svg">
<path d="M6.25817 12.5H6.249" stroke="black" stroke-width="2.04167" stroke-linecap="round" stroke-linejoin="round"/>
<path d="M11.4587 16.7102C11.9415 16.8695 12.4041 17.0529 12.8231 17.3464M12.8231 17.3464C13.9073 18.1053 14.5837 19.3504 14.5837 20.713C14.5837 20.7796 14.5279 20.8336 14.4606 20.8333C11.422 20.8199 10.0612 20.3054 9.48929 19.4565L8.33367 17.5592C5.73833 17.0351 3.35271 15.3776 2.08367 12.5868C5.20867 5.71447 15.1045 5.71447 18.2295 12.5868M12.8231 17.3464C15.0838 16.6585 17.0994 15.0721 18.2295 12.5868M18.2295 12.5868C18.5767 11.8996 20.417 9.49424 22.917 9.49424C22.049 10.3533 20.6253 13.6176 21.8753 15.6794C20.6253 15.6794 18.7503 13.2741 18.2295 12.5868ZM12.8231 7.82729C13.9073 7.06837 14.5837 5.82317 14.5837 4.4606C14.5837 3.59958 10.0959 4.81673 9.48929 5.71715L8.33367 7.6144" stroke="black" stroke-width="1.53125" stroke-linecap="round" stroke-linejoin="round"/>
</svg>
